<svg xmlns="http://www.w3.org/2000/svg" width="142" height="142" viewBox="0 0 142 142">
  <g id="Group_200" data-name="Group 200" transform="translate(-3110.389 -3626.18)">
    <g id="Group_155" data-name="Group 155">
      <g id="Group_154" data-name="Group 154">
        <path id="Path_657" data-name="Path 657" d="M3174.044,3729.008a38.977,38.977,0,0,1,8.621-24.483h-64.931a7.345,7.345,0,0,0-7.345,7.345v24.482a7.344,7.344,0,0,0,7.345,7.345h59.185a39.027,39.027,0,0,1-2.875-14.689" fill="#aaabab"/>
        <path id="Path_658" data-name="Path 658" d="M3235.251,3665.352H3117.734a7.344,7.344,0,0,1-7.345-7.344v-24.483a7.344,7.344,0,0,1,7.345-7.345h117.517a7.344,7.344,0,0,1,7.345,7.345v24.483a7.344,7.344,0,0,1-7.345,7.344" fill="#aaabab"/>
      </g>
      <path id="Path_659" data-name="Path 659" d="M3213.217,3689.835a39.043,39.043,0,0,1,27.913,11.708,7.288,7.288,0,0,0,1.466-4.363V3672.7a7.344,7.344,0,0,0-7.345-7.345H3117.734a7.344,7.344,0,0,0-7.345,7.345v24.483a7.344,7.344,0,0,0,7.345,7.345h64.931a39.08,39.08,0,0,1,30.552-14.69" fill="#898989"/>
      <path id="Path_660" data-name="Path 660" d="M3147.113,3733.9h-4.9a2.446,2.446,0,0,1-2.449-2.448v-4.9a2.446,2.446,0,0,1,2.449-2.448h4.9a2.446,2.446,0,0,1,2.449,2.448v4.9a2.446,2.446,0,0,1-2.449,2.448" fill="#f8b500"/>
      <path id="Path_661" data-name="Path 661" d="M3127.527,3733.9h-4.9a2.446,2.446,0,0,1-2.449-2.448v-4.9a2.446,2.446,0,0,1,2.449-2.448h4.9a2.445,2.445,0,0,1,2.448,2.448v4.9a2.445,2.445,0,0,1-2.448,2.448" fill="#e60012"/>
      <path id="Path_662" data-name="Path 662" d="M3166.7,3694.732h-4.9a2.446,2.446,0,0,1-2.448-2.449v-4.9a2.445,2.445,0,0,1,2.448-2.448h4.9a2.446,2.446,0,0,1,2.449,2.448v4.9a2.447,2.447,0,0,1-2.449,2.449" fill="#22ac38"/>
      <path id="Path_663" data-name="Path 663" d="M3147.113,3694.732h-4.9a2.447,2.447,0,0,1-2.449-2.449v-4.9a2.446,2.446,0,0,1,2.449-2.448h4.9a2.446,2.446,0,0,1,2.449,2.448v4.9a2.447,2.447,0,0,1-2.449,2.449" fill="#f8b500"/>
      <path id="Path_664" data-name="Path 664" d="M3127.527,3694.732h-4.9a2.447,2.447,0,0,1-2.449-2.449v-4.9a2.446,2.446,0,0,1,2.449-2.448h4.9a2.445,2.445,0,0,1,2.448,2.448v4.9a2.446,2.446,0,0,1-2.448,2.449" fill="#e60012"/>
      <path id="Path_665" data-name="Path 665" d="M3166.7,3655.559h-4.9a2.445,2.445,0,0,1-2.448-2.448v-4.9a2.446,2.446,0,0,1,2.448-2.448h4.9a2.447,2.447,0,0,1,2.449,2.448v4.9a2.446,2.446,0,0,1-2.449,2.448" fill="#22ac38"/>
      <path id="Path_666" data-name="Path 666" d="M3147.113,3655.559h-4.9a2.446,2.446,0,0,1-2.449-2.448v-4.9a2.447,2.447,0,0,1,2.449-2.448h4.9a2.447,2.447,0,0,1,2.449,2.448v4.9a2.446,2.446,0,0,1-2.449,2.448" fill="#f8b500"/>
      <path id="Path_667" data-name="Path 667" d="M3127.527,3655.559h-4.9a2.446,2.446,0,0,1-2.449-2.448v-4.9a2.447,2.447,0,0,1,2.449-2.448h4.9a2.446,2.446,0,0,1,2.448,2.448v4.9a2.445,2.445,0,0,1-2.448,2.448" fill="#e60012"/>
      <path id="Path_668" data-name="Path 668" d="M3230.355,3648.214h-44.069a2.448,2.448,0,1,1,0-4.9h44.069a2.448,2.448,0,0,1,0,4.9" fill="#898989"/>
      <path id="Path_669" data-name="Path 669" d="M3198.527,3687.387h-12.241a2.448,2.448,0,1,1,0-4.9h12.241a2.448,2.448,0,0,1,0,4.9" fill="#aaabab"/>
    </g>
    <g id="Group_158" data-name="Group 158">
      <circle id="Ellipse_65" data-name="Ellipse 65" cx="39.105" cy="39.105" r="39.105" transform="translate(3174.178 3689.969)" fill="#fff"/>
      <g id="Group_157" data-name="Group 157">
        <g id="Group_156" data-name="Group 156">
          <path id="Path_670" data-name="Path 670" d="M3194.622,3736.067l-2.334,8.712-8.529.18a33.579,33.579,0,0,1-.246-31.3h0l7.594,1.393,3.326,7.547a19.994,19.994,0,0,0,.188,13.468Z" fill="#faba00"/>
          <path id="Path_671" data-name="Path 671" d="M3246.217,3722.813a33.5,33.5,0,0,1-11.949,32.4l0,0-9.564-.488-1.353-8.45a19.977,19.977,0,0,0,8.595-10.2H3214.02v-13.26h32.2Z" fill="#518df7"/>
          <path id="Path_672" data-name="Path 672" d="M3234.266,3755.212l0,0a33.531,33.531,0,0,1-50.509-10.255l10.863-8.892a19.934,19.934,0,0,0,28.727,10.207Z" fill="#28b346"/>
          <path id="Path_673" data-name="Path 673" d="M3234.679,3703.272l-10.859,8.89a19.932,19.932,0,0,0-29.386,10.437l-10.92-8.94h0a33.527,33.527,0,0,1,51.166-10.387Z" fill="#f04336"/>
        </g>
      </g>
    </g>
  </g>
</svg>
