<svg xmlns="http://www.w3.org/2000/svg" width="158.652" height="142" viewBox="0 0 158.652 142">
  <g id="Group_199" data-name="Group 199" transform="translate(-2775.299 -3626.18)">
    <circle id="Ellipse_64" data-name="Ellipse 64" cx="59.471" cy="59.471" r="59.471" transform="translate(2775.299 3626.18)" fill="#bfc0c0"/>
    <g id="Group_146" data-name="Group 146">
      <path id="Path_642" data-name="Path 642" d="M2866.04,3675.313H2803.5a5.77,5.77,0,0,0-5.77,5.77v43.555a5.771,5.771,0,0,0,5.77,5.77h62.54a5.77,5.77,0,0,0,5.77-5.77v-43.555A5.77,5.77,0,0,0,2866.04,3675.313Z" fill="#c70011"/>
      <g id="Group_144" data-name="Group 144">
        <path id="Path_643" data-name="Path 643" d="M2834.77,3630.369v9.719a17.539,17.539,0,0,1,17.52,17.52v14.2h9.719v-14.2A27.269,27.269,0,0,0,2834.77,3630.369Z" fill="#898989"/>
        <path id="Path_644" data-name="Path 644" d="M2807.531,3657.608v14.2h9.719v-14.2a17.539,17.539,0,0,1,17.52-17.52v-9.719A27.27,27.27,0,0,0,2807.531,3657.608Z" fill="#898989"/>
      </g>
      <g id="Group_145" data-name="Group 145">
        <path id="Path_645" data-name="Path 645" d="M2866.04,3671.8h-31.27V3726.9h31.271a5.769,5.769,0,0,0,5.769-5.769v-43.555A5.77,5.77,0,0,0,2866.04,3671.8Z" fill="#eb6164"/>
        <path id="Path_646" data-name="Path 646" d="M2817.25,3671.8H2803.5a5.77,5.77,0,0,0-5.77,5.77v43.554a5.77,5.77,0,0,0,5.77,5.77h31.27V3671.8h-17.52Z" fill="#eb6164"/>
      </g>
      <path id="Path_647" data-name="Path 647" d="M2841.365,3690.942a6.595,6.595,0,1,0-10.123,5.555l-1.967,9.372h10.99l-1.967-9.372A6.575,6.575,0,0,0,2841.365,3690.942Z" fill="#c70011"/>
    </g>
    <g id="Group_152" data-name="Group 152">
      <g id="Group_149" data-name="Group 149">
        <path id="Path_648" data-name="Path 648" d="M2904.555,3702.908h-74.094a6.835,6.835,0,0,0-6.835,6.836v51.6a6.835,6.835,0,0,0,6.835,6.836h74.094a6.835,6.835,0,0,0,6.835-6.836v-51.6A6.835,6.835,0,0,0,2904.555,3702.908Z" fill="#0b9531"/>
        <g id="Group_147" data-name="Group 147">
          <path id="Path_649" data-name="Path 649" d="M2867.508,3649.661v11.515a20.778,20.778,0,0,1,20.756,20.756v16.817h11.515v-16.817A32.308,32.308,0,0,0,2867.508,3649.661Z" fill="#949495"/>
          <path id="Path_650" data-name="Path 650" d="M2835.237,3681.932v16.817h11.515v-16.817a20.779,20.779,0,0,1,20.756-20.756v-11.515A32.308,32.308,0,0,0,2835.237,3681.932Z" fill="#949495"/>
        </g>
        <g id="Group_148" data-name="Group 148">
          <path id="Path_651" data-name="Path 651" d="M2904.555,3698.749h-37.047v65.272h37.047a6.836,6.836,0,0,0,6.836-6.835v-51.6A6.837,6.837,0,0,0,2904.555,3698.749Z" fill="#80b94a"/>
          <path id="Path_652" data-name="Path 652" d="M2846.752,3698.749h-16.291a6.836,6.836,0,0,0-6.835,6.836v51.6a6.835,6.835,0,0,0,6.835,6.836h37.047v-65.272h-20.756Z" fill="#80b94a"/>
        </g>
      </g>
      <g id="Group_151" data-name="Group 151">
        <path id="Path_653" data-name="Path 653" d="M2876.087,3722.155a8.179,8.179,0,1,0-12.723,6.8,1.257,1.257,0,0,1,.566,1.043v5.011a4.046,4.046,0,0,0,3.526,4.059,3.98,3.98,0,0,0,4.431-3.954v-5.132a1.229,1.229,0,0,1,.557-1.021A8.169,8.169,0,0,0,2876.087,3722.155Z" fill="#0b9531"/>
        <path id="Path_654" data-name="Path 654" d="M2871.33,3728.954a8.173,8.173,0,0,1,.57-13.939,8.179,8.179,0,0,0-8.535,13.939,1.258,1.258,0,0,1,.565,1.043v5.012a4.046,4.046,0,0,0,3.526,4.058,3.979,3.979,0,0,0,4.431-3.954v-5.132c0-.017,0-.033,0-.051A1.26,1.26,0,0,0,2871.33,3728.954Z" fill="#007c29"/>
        <g id="Group_150" data-name="Group 150">
          <path id="Path_655" data-name="Path 655" d="M2933.949,3726.194a21.423,21.423,0,0,0-41.278-7.7,1.453,1.453,0,0,1-1.348.913h-9.685a1.488,1.488,0,0,0-.962.353l-2.517,2.136a1.694,1.694,0,0,1-1.095.4h-17.33a8.168,8.168,0,0,0,3.631,6.655,1.256,1.256,0,0,1,.565,1.043v.771h26.253a1.68,1.68,0,0,1,1.631,1.241,21.425,21.425,0,0,0,42.135-5.815Zm-7.142,3.867c0,3.465.293,3.164-3.172,3.164s-3.832.3-3.832-3.164v-7.054c0-3.465.142-3.532,3.607-3.532s3.4-.017,3.4,3.532Z" fill="#fdd762"/>
          <path id="Path_656" data-name="Path 656" d="M2919.325,3745.15a21.768,21.768,0,0,1-13.235-39.05,21.477,21.477,0,0,0-13.419,12.4,1.453,1.453,0,0,1-1.348.913h-9.685a1.488,1.488,0,0,0-.962.353l-2.517,2.136a1.694,1.694,0,0,1-1.095.4h-17.33a8.167,8.167,0,0,0,3.63,6.655,1.257,1.257,0,0,1,.566,1.043v.771h26.253a1.682,1.682,0,0,1,1.631,1.241,21.428,21.428,0,0,0,32.143,12.645A21.811,21.811,0,0,1,2919.325,3745.15Z" fill="#f8b500"/>
        </g>
      </g>
    </g>
  </g>
</svg>
