<svg xmlns="http://www.w3.org/2000/svg" width="118.852" height="142" viewBox="0 0 118.852 142">
  <g id="Group_198" data-name="Group 198" transform="translate(-3112.574 -3352)">
    <g id="Group_142" data-name="Group 142">
      <path id="Path_613" data-name="Path 613" d="M3153.026,3402.867a2.826,2.826,0,0,1-2.827-2.826v-16.956a2.826,2.826,0,0,1,5.652,0v16.956a2.826,2.826,0,0,1-2.825,2.826Zm0,0" fill="#aaabab"/>
      <path id="Path_614" data-name="Path 614" d="M3164.329,3402.867a2.826,2.826,0,0,1-2.825-2.826v-16.956a2.826,2.826,0,0,1,5.652,0v16.956a2.827,2.827,0,0,1-2.827,2.826Zm0,0" fill="#aaabab"/>
      <path id="Path_615" data-name="Path 615" d="M3141.722,3402.867a2.826,2.826,0,0,1-2.827-2.826v-16.956a2.826,2.826,0,0,1,5.652,0v16.956a2.826,2.826,0,0,1-2.825,2.826Zm0,0" fill="#aaabab"/>
      <path id="Path_616" data-name="Path 616" d="M3153.026,3462.212a2.827,2.827,0,0,1-2.827-2.827V3442.43a2.826,2.826,0,0,1,5.652,0v16.955a2.826,2.826,0,0,1-2.825,2.827Zm0,0" fill="#aaabab"/>
      <path id="Path_617" data-name="Path 617" d="M3136.07,3462.212a2.827,2.827,0,0,1-2.827-2.827V3442.43a2.826,2.826,0,0,1,5.652,0v16.955a2.826,2.826,0,0,1-2.825,2.827Zm0,0" fill="#aaabab"/>
      <path id="Path_618" data-name="Path 618" d="M3119.115,3462.212a2.827,2.827,0,0,1-2.827-2.827V3442.43a2.826,2.826,0,0,1,5.652,0v16.955a2.826,2.826,0,0,1-2.825,2.827Zm0,0" fill="#aaabab"/>
      <path id="Path_619" data-name="Path 619" d="M3127.592,3402.867h-5.652a5.652,5.652,0,0,1-5.652-5.651v-11.305a5.652,5.652,0,0,1,5.652-5.652h5.652a5.651,5.651,0,0,1,5.651,5.652v11.305a5.651,5.651,0,0,1-5.651,5.651Zm-5.652-16.956v11.305h5.652v-11.305Zm0,0" fill="#aaabab"/>
      <path id="Path_620" data-name="Path 620" d="M3119.115,3433.952a2.826,2.826,0,0,1-2.827-2.826v-16.955a2.826,2.826,0,1,1,5.652,0v16.955a2.826,2.826,0,0,1-2.825,2.826Zm0,0" fill="#aaabab"/>
      <path id="Path_621" data-name="Path 621" d="M3130.418,3433.952a2.826,2.826,0,0,1-2.826-2.826v-16.955a2.825,2.825,0,1,1,5.651,0v16.955a2.826,2.826,0,0,1-2.825,2.826Zm0,0" fill="#aaabab"/>
      <path id="Path_622" data-name="Path 622" d="M3150.2,3433.952h-5.652a5.653,5.653,0,0,1-5.652-5.652V3417a5.653,5.653,0,0,1,5.652-5.652h5.652a5.653,5.653,0,0,1,5.652,5.652v11.3a5.653,5.653,0,0,1-5.652,5.652ZM3144.547,3417v11.3h5.652V3417Zm0,0" fill="#aaabab"/>
      <path id="Path_623" data-name="Path 623" d="M3201.066,3374.607a2.826,2.826,0,0,1-2.826-2.825v-16.956a2.827,2.827,0,0,1,5.653,0v16.956a2.827,2.827,0,0,1-2.827,2.825Zm0,0" fill="#aaabab"/>
      <path id="Path_624" data-name="Path 624" d="M3220.848,3374.607H3215.2a5.651,5.651,0,0,1-5.651-5.652v-11.3A5.651,5.651,0,0,1,3215.2,3352h5.652a5.651,5.651,0,0,1,5.652,5.652v11.3a5.651,5.651,0,0,1-5.652,5.652Zm-5.652-16.955v11.3h5.652v-11.3Zm0,0" fill="#aaabab"/>
      <path id="Path_625" data-name="Path 625" d="M3201.066,3374.607a2.826,2.826,0,0,1-2.826-2.825v-16.956a2.827,2.827,0,0,1,5.653,0v16.956a2.827,2.827,0,0,1-2.827,2.825Zm0,0" fill="#aaabab"/>
      <path id="Path_626" data-name="Path 626" d="M3189.763,3374.607a2.826,2.826,0,0,1-2.827-2.825v-16.956a2.826,2.826,0,1,1,5.652,0v16.956a2.825,2.825,0,0,1-2.825,2.825Zm0,0" fill="#aaabab"/>
      <path id="Path_627" data-name="Path 627" d="M3121.94,3374.607a2.825,2.825,0,0,1-2.825-2.825v-16.956a2.826,2.826,0,0,1,5.652,0v16.956a2.826,2.826,0,0,1-2.827,2.825Zm0,0" fill="#aaabab"/>
      <path id="Path_628" data-name="Path 628" d="M3121.94,3374.607a2.825,2.825,0,0,1-2.825-2.825v-16.956a2.826,2.826,0,0,1,5.652,0v16.956a2.826,2.826,0,0,1-2.827,2.825Zm0,0" fill="#aaabab"/>
      <path id="Path_629" data-name="Path 629" d="M3155.851,3374.607a2.825,2.825,0,0,1-2.825-2.825v-16.956a2.826,2.826,0,1,1,5.651,0v16.956a2.825,2.825,0,0,1-2.826,2.825Zm0,0" fill="#aaabab"/>
      <path id="Path_630" data-name="Path 630" d="M3155.851,3374.607a2.825,2.825,0,0,1-2.825-2.825v-16.956a2.826,2.826,0,1,1,5.651,0v16.956a2.825,2.825,0,0,1-2.826,2.825Zm0,0" fill="#aaabab"/>
      <path id="Path_631" data-name="Path 631" d="M3175.633,3374.607h-5.652a5.651,5.651,0,0,1-5.652-5.652v-11.3a5.651,5.651,0,0,1,5.652-5.652h5.652a5.651,5.651,0,0,1,5.651,5.652v11.3a5.651,5.651,0,0,1-5.651,5.652Zm-5.652-16.955v11.3h5.652v-11.3Zm0,0" fill="#aaabab"/>
      <path id="Path_632" data-name="Path 632" d="M3141.722,3374.607h-5.652a5.652,5.652,0,0,1-5.652-5.652v-11.3a5.652,5.652,0,0,1,5.652-5.652h5.652a5.651,5.651,0,0,1,5.652,5.652v11.3a5.651,5.651,0,0,1-5.652,5.652Zm-5.652-16.955v11.3h5.652v-11.3Zm0,0" fill="#aaabab"/>
    </g>
    <path id="Path_633" data-name="Path 633" d="M3149.715,3370.2h34.665l12.381-12.38h34.665v128.756A7.428,7.428,0,0,1,3224,3494h-79.235V3375.148a4.952,4.952,0,0,1,4.952-4.952Zm0,0" fill="#f8b500"/>
    <path id="Path_634" data-name="Path 634" d="M3224,3494a7.429,7.429,0,0,1-7.429-7.428v-56.95a4.952,4.952,0,0,0-4.952-4.952h-86.663v64.378a4.953,4.953,0,0,0,4.953,4.952Zm0,0" fill="#fdd762"/>
    <path id="Path_635" data-name="Path 635" d="M3124.954,3481.62h42.094a9.9,9.9,0,0,0,9.9-9.905v-44.569a9.733,9.733,0,0,0-.352-2.476h-51.646Zm0,0" fill="#d18d29"/>
    <path id="Path_636" data-name="Path 636" d="M3152.191,3427.146v-14.857a9.9,9.9,0,1,0-19.808,0v14.857h-9.905v-14.857a19.809,19.809,0,0,1,39.618,0v14.857Zm0,0" fill="#4c4948"/>
    <path id="Path_637" data-name="Path 637" d="M3117.526,3422.194h49.522a4.952,4.952,0,0,1,4.952,4.952v44.569a4.952,4.952,0,0,1-4.952,4.952h-49.522a4.952,4.952,0,0,1-4.952-4.952v-44.569a4.952,4.952,0,0,1,4.952-4.952Zm0,0" fill="#e60012"/>
    <path id="Path_638" data-name="Path 638" d="M3152.191,3444.478a9.9,9.9,0,1,0-14.856,8.53v6.327a4.952,4.952,0,1,0,9.9,0v-6.327a9.855,9.855,0,0,0,4.952-8.53Zm0,0" fill="#f7c7c6"/>
    <path id="Path_639" data-name="Path 639" d="M3196.761,3471.811H3172v-4.952h23.736l5.977-5.977V3452h4.952v9.905a2.475,2.475,0,0,1-.725,1.75l-7.429,7.428a2.472,2.472,0,0,1-1.75.726Zm0,0" fill="#fff2c2"/>
    <path id="Path_640" data-name="Path 640" d="M3186.856,3439.526v-37.141h2.477a2.477,2.477,0,0,0,2.476-2.476V3390a2.476,2.476,0,0,0-2.476-2.476h-9.905a2.476,2.476,0,0,0-2.476,2.476v9.9a2.477,2.477,0,0,0,2.476,2.476h2.476v34.665H3172V3442h12.38a2.475,2.475,0,0,0,2.476-2.476Zm-4.952-47.045h4.952v4.952H3181.9Zm0,0" fill="#fff2c2"/>
    <path id="Path_641" data-name="Path 641" d="M3214.093,3382.624h-9.9a2.477,2.477,0,0,0-2.476,2.476v9.9a2.477,2.477,0,0,0,2.476,2.476h2.476v8.879l-14.131,14.131a2.477,2.477,0,0,0-.725,1.751v29.713H3172v4.952h22.285a2.476,2.476,0,0,0,2.476-2.476v-31.164l14.131-14.131a2.479,2.479,0,0,0,.725-1.751v-9.9h2.476a2.476,2.476,0,0,0,2.476-2.476v-9.9a2.476,2.476,0,0,0-2.476-2.476Zm-2.476,9.905h-4.952v-4.953h4.952Zm0,0" fill="#fff2c2"/>
    <rect id="Rectangle_47" data-name="Rectangle 47" width="4.952" height="4.952" transform="translate(3172 3451.955)" fill="#c16e42"/>
    <rect id="Rectangle_48" data-name="Rectangle 48" width="4.952" height="4.952" transform="translate(3172 3437.05)" fill="#c16e42"/>
  </g>
</svg>
