<svg xmlns="http://www.w3.org/2000/svg" width="142" height="142" viewBox="0 0 142 142">
  <g id="Group_202" data-name="Group 202" transform="translate(-6612.056 -3474)">
    <g id="Group_197" data-name="Group 197" transform="translate(3175 -152)">
      <path id="Path_599" data-name="Path 599" d="M3553.238,3706.682a6.455,6.455,0,1,0,6.454,6.454A6.463,6.463,0,0,0,3553.238,3706.682Z" fill="#fff"/>
      <path id="Path_600" data-name="Path 600" d="M3459.647,3742.182a3.225,3.225,0,0,0-3.227,3.227v6.455a3.227,3.227,0,0,0,6.454,0v-6.455A3.225,3.225,0,0,0,3459.647,3742.182Z" fill="#fff"/>
      <path id="Path_601" data-name="Path 601" d="M3469.751,3690.545h82.5c7.4,0,13.893-4.324,13.893-9.25,0-3.917-4.223-7.62-10.038-8.8a9.689,9.689,0,0,1-7.731-8.907c-.832-13.835-15.954-24.674-34.429-24.674-14.964,0-28.153,7.236-32.827,18.005a9.671,9.671,0,0,1-8.878,5.831c-.183,0-1.62-.1-1.62-.1l-.873-.066c-10.725,0-19.786,6.4-19.786,13.987S3459.026,3690.545,3469.751,3690.545Z" fill="#fff"/>
      <path id="Path_602" data-name="Path 602" d="M3485.465,3706.682a3.225,3.225,0,0,0-3.227,3.227v6.455a3.227,3.227,0,1,0,6.454,0v-6.455A3.225,3.225,0,0,0,3485.465,3706.682Z" fill="#fff"/>
      <path id="Path_603" data-name="Path 603" d="M3459.647,3703.455a3.225,3.225,0,0,0-3.227,3.227v6.454a3.227,3.227,0,1,0,6.454,0v-6.454A3.225,3.225,0,0,0,3459.647,3703.455Z" fill="#fff"/>
      <path id="Path_604" data-name="Path 604" d="M3472.556,3706.682a3.225,3.225,0,0,0-3.227,3.227v6.455a3.227,3.227,0,1,0,6.454,0v-6.455A3.225,3.225,0,0,0,3472.556,3706.682Z" fill="#fff"/>
      <path id="Path_605" data-name="Path 605" d="M3533.874,3706.682a6.455,6.455,0,1,0,6.455,6.454A6.462,6.462,0,0,0,3533.874,3706.682Z" fill="#fff"/>
      <path id="Path_606" data-name="Path 606" d="M3553.238,3745.409a6.455,6.455,0,1,0,6.454,6.455A6.463,6.463,0,0,0,3553.238,3745.409Z" fill="#fff"/>
      <path id="Path_607" data-name="Path 607" d="M3533.874,3745.409a6.455,6.455,0,1,0,6.455,6.455A6.463,6.463,0,0,0,3533.874,3745.409Z" fill="#fff"/>
      <path id="Path_608" data-name="Path 608" d="M3472.556,3745.409a3.225,3.225,0,0,0-3.227,3.227v6.455a3.227,3.227,0,1,0,6.454,0v-6.455A3.225,3.225,0,0,0,3472.556,3745.409Z" fill="#fff"/>
      <path id="Path_609" data-name="Path 609" d="M3485.465,3745.409a3.225,3.225,0,0,0-3.227,3.227v6.455a3.227,3.227,0,1,0,6.454,0v-6.455A3.225,3.225,0,0,0,3485.465,3745.409Z" fill="#fff"/>
    </g>
    <path id="Path_775" data-name="Path 775" d="M3577.278,3728.488a3.255,3.255,0,0,0-3.372.29,36.5,36.5,0,0,1-21.652,6.949h-82.5a42.609,42.609,0,0,1-27.4-9.593,3.226,3.226,0,0,0-5.3,2.474v12.5c0,14.829,14.668,26.893,32.7,26.893h82.5c14.778,0,26.8-9.943,26.8-22.162v-14.466A3.226,3.226,0,0,0,3577.278,3728.488Zm-114.4,23.376a3.227,3.227,0,0,1-6.454,0v-6.455a3.227,3.227,0,0,1,6.454,0Zm12.909,3.227a3.227,3.227,0,1,1-6.454,0v-6.455a3.227,3.227,0,1,1,6.454,0Zm12.909,0a3.227,3.227,0,1,1-6.454,0v-6.455a3.227,3.227,0,1,1,6.454,0Zm45.182,3.227a6.455,6.455,0,1,1,6.455-6.454A6.462,6.462,0,0,1,3533.874,3758.318Zm19.364,0a6.455,6.455,0,1,1,6.454-6.454A6.463,6.463,0,0,1,3553.238,3758.318Z" transform="translate(3175 -152)" fill="#3db4e8"/>
    <path id="Path_776" data-name="Path 776" d="M3469.751,3729.273h82.5c14.778,0,26.8-9.944,26.8-22.163,0,0-.056-26.387-.062-26.464-.327-9.234-7.485-17.253-17.965-20.233-2.635-19.484-22.777-34.413-47.08-34.413-19.1,0-36.319,9.427-43.672,23.675-.173-.006-.35-.009-.526-.009-18.027,0-32.7,12.064-32.7,26.9v25.818C3437.056,3717.208,3451.724,3729.273,3469.751,3729.273Zm-6.877-16.137a3.227,3.227,0,1,1-6.454,0v-6.454a3.227,3.227,0,0,1,6.454,0Zm12.909,3.228a3.227,3.227,0,1,1-6.454,0v-6.455a3.227,3.227,0,1,1,6.454,0Zm12.909,0a3.227,3.227,0,1,1-6.454,0v-6.455a3.227,3.227,0,1,1,6.454,0Zm45.182,3.227a6.455,6.455,0,1,1,6.455-6.455A6.463,6.463,0,0,1,3533.874,3719.591Zm19.364,0a6.455,6.455,0,1,1,6.454-6.455A6.463,6.463,0,0,1,3553.238,3719.591Zm-83.487-57.016.873.066s1.437.1,1.62.1a9.671,9.671,0,0,0,8.878-5.831c4.674-10.769,17.863-18.005,32.827-18.005,18.475,0,33.6,10.839,34.429,24.674a9.689,9.689,0,0,0,7.731,8.907c5.815,1.185,10.038,4.888,10.038,8.8,0,4.926-6.493,9.25-13.893,9.25h-82.5c-10.725,0-19.786-6.4-19.786-13.983S3459.026,3662.575,3469.751,3662.575Z" transform="translate(3175 -152)" fill="#0095d8"/>
  </g>
</svg>
