<svg xmlns="http://www.w3.org/2000/svg" width="106.501" height="142.003" viewBox="0 0 106.501 142.003">
  <path id="Path_777" data-name="Path 777" d="M2905.9,3369.919l-50.292-17.75a2.962,2.962,0,0,0-1.97,0l-50.292,17.75a2.962,2.962,0,0,0-1.973,2.791v35.5c0,45.941,6.812,62.732,51.918,85.475a2.95,2.95,0,0,0,2.664,0c45.106-22.743,51.919-39.534,51.919-85.475v-35.5A2.963,2.963,0,0,0,2905.9,3369.919Zm-74.944,47.166a8.875,8.875,0,0,1,0,17.75h-5.916a2.958,2.958,0,1,1,0-5.916h5.916a2.958,2.958,0,1,0,0-5.917,8.875,8.875,0,0,1,0-17.75h5.917a2.958,2.958,0,0,1,0,5.917h-5.917a2.958,2.958,0,0,0,0,5.916Zm23.667,0a8.875,8.875,0,0,1,0,17.75h-5.916a2.958,2.958,0,1,1,0-5.916h5.916a2.958,2.958,0,1,0,0-5.917,8.875,8.875,0,0,1,0-17.75h5.917a2.958,2.958,0,0,1,0,5.917h-5.917a2.958,2.958,0,0,0,0,5.916Zm29.584,17.75h-11.834a2.956,2.956,0,0,1-2.958-2.958V3408.21a2.958,2.958,0,0,1,5.917,0v20.709h8.875a2.958,2.958,0,0,1,0,5.916Z" transform="translate(-2801.375 -3352)" fill="#80b94a"/>
</svg>
