<svg xmlns="http://www.w3.org/2000/svg" width="113.953" height="142" viewBox="0 0 113.953 142">
  <g id="Group_201" data-name="Group 201" transform="translate(-3451.079 -3352)">
    <g id="Group_160" data-name="Group 160">
      <path id="Path_674" data-name="Path 674" d="M3557.215,3369.7c-1.621-9.866-24.725-17.7-53.02-17.7s-51.4,7.835-53.019,17.7h-.1v81.9h.1c1.621,9.876,24.739,17.7,53.019,17.7s51.4-7.824,53.02-17.7h.1v-81.9Zm0,0" fill="#424a60"/>
      <path id="Path_675" data-name="Path 675" d="M3504.2,3442.748c-29.329,0-53.116-8.43-53.116-18.816V3451.6h.1c1.621,9.876,24.739,17.7,53.019,17.7s51.4-7.824,53.02-17.7h.1v-27.667c0,10.386-23.774,18.816-53.117,18.816Zm0,0" fill="#0095d8"/>
      <path id="Path_676" data-name="Path 676" d="M3451.079,3422.831v1.1a7.686,7.686,0,0,1,.1-1.1Zm0,0" fill="#424a60"/>
      <path id="Path_677" data-name="Path 677" d="M3557.215,3422.831a6.188,6.188,0,0,1,.1,1.1v-1.1Zm0,0" fill="#424a60"/>
      <path id="Path_678" data-name="Path 678" d="M3504.2,3416.183c-29.329,0-53.116-8.419-53.116-18.816v27.666h.1c1.621,9.88,24.739,17.715,53.019,17.715s51.4-7.835,53.02-17.715h.1v-27.666c0,10.4-23.774,18.816-53.117,18.816Zm0,0" fill="#3db4e8"/>
      <path id="Path_679" data-name="Path 679" d="M3451.079,3396.266v1.1a7.761,7.761,0,0,1,.1-1.1Zm0,0" fill="#556080"/>
      <path id="Path_680" data-name="Path 680" d="M3557.215,3396.266a6.236,6.236,0,0,1,.1,1.1v-1.1Zm0,0" fill="#556080"/>
      <path id="Path_681" data-name="Path 681" d="M3557.312,3370.816c0,10.386-23.774,18.816-53.117,18.816s-53.116-8.43-53.116-18.816S3474.866,3352,3504.2,3352s53.117,8.419,53.117,18.816Zm0,0" fill="#cfebf8"/>
      <path id="Path_682" data-name="Path 682" d="M3504.2,3389.632c-29.329,0-53.116-8.43-53.116-18.816v27.666h.1c1.621,9.866,24.739,17.7,53.019,17.7s51.4-7.835,53.02-17.7h.1v-27.666c0,10.386-23.774,18.816-53.117,18.816Zm0,0" fill="#8fd3f3"/>
      <path id="Path_683" data-name="Path 683" d="M3451.079,3369.7v1.115a7.784,7.784,0,0,1,.1-1.115Zm0,0" fill="#7383bf"/>
      <path id="Path_684" data-name="Path 684" d="M3557.215,3369.7a6.282,6.282,0,0,1,.1,1.115V3369.7Zm0,0" fill="#7383bf"/>
    </g>
    <g id="Group_163" data-name="Group 163">
      <path id="Path_685" data-name="Path 685" d="M3539.531,3442.158v-19.125a12.75,12.75,0,1,0-25.5,0v19.125h-12.75v-19.125a25.5,25.5,0,0,1,51,0v19.125Zm0,0" fill="#e08800"/>
      <path id="Path_686" data-name="Path 686" d="M3494.905,3423.872h63.752a6.375,6.375,0,0,1,6.375,6.375v57.378a6.375,6.375,0,0,1-6.375,6.375h-63.752a6.376,6.376,0,0,1-6.376-6.375v-57.378a6.376,6.376,0,0,1,6.376-6.375Zm0,0" fill="#990802"/>
      <g id="Group_162" data-name="Group 162">
        <g id="Group_161" data-name="Group 161">
          <path id="Path_687" data-name="Path 687" d="M3526.781,3430.525l-26.99,7.838v9.721c0,15.912,10.179,30.721,26.99,39.263,16.81-8.542,26.99-23.351,26.99-39.263v-9.721Zm22.083,19.5a31.7,31.7,0,0,1-7.359,19.963h0a43.081,43.081,0,0,1-14.721,11.48,43.072,43.072,0,0,1-14.721-11.48h0a31.692,31.692,0,0,1-7.359-19.963V3441.3l22.083-6.858,22.083,6.858Z" fill="#c70011"/>
          <path id="Path_688" data-name="Path 688" d="M3526.781,3434.444,3504.7,3441.3v8.724a31.692,31.692,0,0,0,7.359,19.963h0a43.072,43.072,0,0,0,14.721,11.48,43.081,43.081,0,0,0,14.721-11.48h0a31.7,31.7,0,0,0,7.359-19.963V3441.3Z" fill="#e60012"/>
        </g>
        <path id="Path_689" data-name="Path 689" d="M3537.736,3462.352v2.41h-21.91v-2.41a4.866,4.866,0,0,1,3.53-4.686l4.99-1.424v-1.886a4.867,4.867,0,0,1-2.434-4.2v-2.434a4.867,4.867,0,0,1,4.869-4.868c.146,0,.292.012.438.024a5.034,5.034,0,0,1,4.431,5.1v2.179a4.868,4.868,0,0,1-2.435,4.2v1.886l4.991,1.424a4.866,4.866,0,0,1,3.53,4.686Z" fill="#f1f1f1"/>
      </g>
    </g>
  </g>
</svg>
